<?xml version="1.0" encoding="UTF-8" standalone="no"?>
<svg width="51px" height="43px" viewBox="0 0 51 43" version="1.1" xmlns="http://www.w3.org/2000/svg" xmlns:xlink="http://www.w3.org/1999/xlink" xmlns:sketch="http://www.bohemiancoding.com/sketch/ns">
    <!-- Generator: Sketch 3.4.2 (15857) - http://www.bohemiancoding.com/sketch -->
    <title>logo</title>
    <desc>Created with Sketch.</desc>
    <defs></defs>
    <g id="About*" stroke="none" stroke-width="1" fill="none" fill-rule="evenodd" sketch:type="MSPage">
        <g id="About" sketch:type="MSArtboardGroup" transform="translate(-38.000000, -12.000000)">
            <g id="logo" sketch:type="MSLayerGroup" transform="translate(37.000000, 12.000000)">
                <g id="Ebene_1" sketch:type="MSShapeGroup">
                    <g id="Group">
                        <path d="M20.6142857,20.1913043 C14.6714286,20.1913043 8.72857143,20.1913043 2.78571429,20.3782609 C1.85714286,20.3782609 1.11428571,20.9391304 1.11428571,21.6869565 C1.11428571,25.426087 1.85714286,29.1652174 2.97142857,32.9043478 C3.15714286,33.6521739 4.08571429,34.4 4.82857143,34.5869565 C10.2142857,35.7086957 15.6,36.4565217 21.1714286,36.6434783 C21.9142857,36.6434783 22.6571429,36.0826087 22.4714286,35.1478261 C22.4714286,30.6608696 22.2857143,26.173913 22.2857143,21.6869565 C22.2857143,20.9391304 21.5428571,20.1913043 20.6142857,20.1913043 L20.6142857,20.1913043 Z" id="Shape" fill="#36B7BA"></path>
                        <path d="M10.9571429,28.4173913 C10.0285714,29.5391304 9.28571429,30.2869565 8.91428571,30.8478261 C8.72857143,31.0347826 8.54285714,31.2217391 8.54285714,31.5956522 C8.54285714,31.9695652 8.91428571,32.3434783 9.1,32.7173913 C9.47142857,32.7173913 9.47142857,32.3434783 9.65714286,32.1565217 C10.0285714,31.7826087 10.7714286,30.6608696 11.7,29.5391304 C12.6285714,28.4173913 14.6714286,25.9869565 15.6,24.8652174 C15.7857143,24.6782609 15.9714286,24.4913043 15.9714286,24.3043478 C15.9714286,24.1173913 15.6,23.7434783 15.2285714,23.7434783 C14.4857143,24.4913043 11.8857143,27.2956522 10.9571429,28.4173913 L10.9571429,28.4173913 Z" id="Shape" fill="#FFFFFF"></path>
                        <path d="M15.4142857,31.0347826 C15.6,31.2217391 15.7857143,31.4086957 15.7857143,31.7826087 C15.9714286,32.1565217 15.7857143,32.3434783 15.6,32.7173913 C15.4142857,32.9043478 15.4142857,33.2782609 15.2285714,33.2782609 C15.0428571,33.2782609 14.6714286,32.9043478 14.3,32.5304348 C14.1142857,32.3434783 12.2571429,30.1 11.5142857,29.1652174 C10.7714286,28.0434783 8.91428571,25.6130435 8.54285714,24.6782609 C8.54285714,24.4913043 8.72857143,24.4913043 8.91428571,24.4913043 C9.1,24.3043478 9.1,24.1173913 9.1,24.1173913 C9.47142857,24.4913043 9.65714286,24.6782609 10.0285714,25.2391304 C10.2142857,25.426087 10.9571429,26.5478261 12.0714286,27.8565217 C13.1857143,28.7913043 15.2285714,30.8478261 15.4142857,31.0347826 L15.4142857,31.0347826 Z" id="Shape" fill="#FFFFFF"></path>
                        <path d="M49.7714286,20.3782609 C41.7857143,20.3782609 33.9857143,20.1913043 26,20.1913043 C24.8857143,20.1913043 23.9571429,21.126087 23.9571429,22.2478261 C23.9571429,28.2304348 24.1428571,34.026087 24.3285714,40.0086957 C24.3285714,41.1304348 25.2571429,42.2521739 26.1857143,42.2521739 C32.8714286,42.2521739 39.3714286,41.3173913 46.0571429,39.4478261 C46.9857143,39.073913 48.2857143,38.1391304 48.6571429,37.0173913 C50.7,31.9695652 51.8142857,27.1086957 52,22.0608696 C52,21.126087 50.8857143,20.3782609 49.7714286,20.3782609 L49.7714286,20.3782609 Z" id="Shape" fill="#20ABB4"></path>
                        <path d="M36.0285714,31.5956522 C34.3571429,33.4652174 33.4285714,34.773913 32.6857143,35.5217391 C32.3142857,35.8956522 31.9428571,36.2695652 31.9428571,36.6434783 C31.9428571,37.2043478 32.1285714,37.5782609 32.1285714,38.326087 C32.5,38.326087 32.6857143,37.7652174 33.0571429,37.3913043 C33.6142857,36.6434783 34.9142857,34.9608696 36.5857143,33.0913043 C38.0714286,31.2217391 41.4142857,27.6695652 42.7142857,26.173913 C43.0857143,25.8 43.2714286,25.6130435 43.2714286,25.426087 C43.2714286,25.0521739 42.9,24.6782609 42.3428571,24.8652174 C41.4142857,25.8 37.5142857,29.726087 36.0285714,31.5956522 L36.0285714,31.5956522 Z" id="Shape" fill="#FFFFFF"></path>
                        <path d="M41.0428571,34.2130435 C41.2285714,34.4 41.4142857,34.5869565 41.4142857,34.9608696 C41.4142857,35.3347826 41.0428571,35.7086957 40.8571429,36.0826087 C40.4857143,36.4565217 40.4857143,36.8304348 40.1142857,36.8304348 C39.7428571,36.8304348 39.5571429,36.4565217 39.3714286,36.0826087 C39.1857143,35.8956522 37.5142857,33.2782609 36.7714286,31.9695652 C36.0285714,30.6608696 33.9857143,27.2956522 33.6142857,26.173913 C33.6142857,25.9869565 33.9857143,25.9869565 34.1714286,25.8 C34.3571429,25.6130435 34.3571429,25.426087 34.5428571,25.2391304 C34.9142857,25.6130435 35.2857143,26.173913 35.6571429,26.7347826 C35.8428571,27.1086957 36.7714286,28.6043478 37.8857143,30.1 C38.8142857,31.7826087 40.8571429,34.026087 41.0428571,34.2130435 L41.0428571,34.2130435 Z" id="Shape" fill="#FFFFFF"></path>
                        <path d="M21.5428571,5.60869565 C17.2714286,5.79565217 13,6.35652174 8.54285714,7.10434783 C7.98571429,7.29130435 7.24285714,7.85217391 7.05714286,8.41304348 C6.31428571,11.5913043 5.75714286,14.7695652 5.57142857,17.9478261 C5.57142857,18.5086957 6.12857143,19.0695652 6.87142857,19.0695652 C11.5142857,18.8826087 16.3428571,18.8826087 20.9857143,18.8826087 C21.7285714,18.8826087 22.2857143,18.3217391 22.2857143,17.573913 C22.2857143,14.0217391 22.4714286,10.4695652 22.6571429,6.9173913 C22.6571429,5.9826087 22.1,5.60869565 21.5428571,5.60869565 L21.5428571,5.60869565 Z" id="Shape" fill="#1E878E"></path>
                        <path d="M13.3714286,12.7130435 C12.4428571,13.8347826 11.7,14.5826087 11.3285714,14.9565217 C11.1428571,15.1434783 10.9571429,15.3304348 10.9571429,15.7043478 C10.9571429,16.0782609 11.1428571,16.2652174 11.1428571,16.6391304 C11.3285714,16.6391304 11.5142857,16.2652174 11.7,16.0782609 C12.0714286,15.7043478 12.8142857,14.7695652 13.9285714,13.6478261 C14.8571429,12.526087 16.9,10.4695652 17.6428571,9.53478261 C17.8285714,9.34782609 18.0142857,9.16086957 18.0142857,8.97391304 C18.0142857,8.78695652 17.8285714,8.6 17.4571429,8.6 C16.5285714,9.34782609 14.3,11.7782609 13.3714286,12.7130435 L13.3714286,12.7130435 Z" id="Shape" fill="#FFFFFF"></path>
                        <path d="M16.7142857,14.5826087 C16.9,14.7695652 16.9,14.7695652 17.0857143,15.1434783 C17.0857143,15.3304348 16.9,15.7043478 16.7142857,15.8913043 C16.5285714,16.0782609 16.5285714,16.2652174 16.3428571,16.2652174 C16.1571429,16.2652174 15.9714286,15.8913043 15.7857143,15.7043478 C15.6,15.5173913 14.4857143,14.0217391 13.9285714,13.0869565 C13.3714286,12.3391304 12.4428571,10.4695652 12.2571429,9.72173913 C12.2571429,9.53478261 12.4428571,9.53478261 12.6285714,9.53478261 C12.8142857,9.34782609 12.8142857,9.34782609 12.8142857,9.16086957 C13,9.34782609 13.1857143,9.72173913 13.3714286,9.90869565 C13.5571429,10.0956522 13.9285714,10.8434783 14.6714286,11.7782609 C15.0428571,12.9 16.5285714,14.3956522 16.7142857,14.5826087 L16.7142857,14.5826087 Z" id="Shape" fill="#FFFFFF"></path>
                        <path d="M42.5285714,2.05652174 C36.9571429,0.747826087 31.3857143,0 25.8142857,0 C25.0714286,0 24.3285714,0.747826087 24.3285714,1.86956522 C24.1428571,6.9173913 23.9571429,11.7782609 23.9571429,16.826087 C23.9571429,17.7608696 24.7,18.6956522 25.8142857,18.6956522 C32.5,18.6956522 39.1857143,18.6956522 45.8714286,18.8826087 C46.8,18.8826087 47.5428571,18.1347826 47.5428571,17.3869565 C47.1714286,12.9 46.2428571,8.41304348 44.7571429,4.11304348 C44.3857143,3.17826087 43.4571429,2.24347826 42.5285714,2.05652174 L42.5285714,2.05652174 Z" id="Shape" fill="#5AC0D1"></path>
                        <path d="M33.9857143,9.90869565 C32.8714286,11.4043478 31.9428571,12.3391304 31.5714286,12.9 C31.3857143,13.273913 31.0142857,13.4608696 31.0142857,13.8347826 C31.0142857,14.2086957 31.3857143,14.7695652 31.3857143,15.1434783 C31.7571429,15.1434783 31.9428571,14.7695652 32.1285714,14.3956522 C32.5,13.8347826 33.6142857,12.526087 34.7285714,11.0304348 C35.8428571,9.53478261 38.0714286,6.9173913 38.6285714,5.79565217 C38.8142857,5.60869565 39,5.42173913 39,5.23478261 C39,5.04782609 38.6285714,4.48695652 38.2571429,4.67391304 C37.7,5.60869565 35.2857143,8.6 33.9857143,9.90869565 L33.9857143,9.90869565 Z" id="Shape" fill="#FFFFFF"></path>
                        <path d="M39,12.9 C39.1857143,13.0869565 39.3714286,13.273913 39.5571429,13.6478261 C39.7428571,14.0217391 39.3714286,14.2086957 39.1857143,14.5826087 C39,14.9565217 39,15.1434783 38.6285714,15.1434783 C38.2571429,15.1434783 37.8857143,14.7695652 37.7,14.2086957 C37.5142857,14.0217391 35.4714286,11.5913043 34.7285714,10.2826087 C33.8,8.97391304 31.9428571,6.16956522 31.5714286,5.04782609 C31.5714286,4.86086957 31.7571429,4.86086957 31.9428571,4.67391304 C32.1285714,4.48695652 31.9428571,4.3 32.1285714,4.3 C32.5,4.67391304 32.6857143,5.04782609 33.0571429,5.60869565 C33.2428571,5.79565217 34.1714286,7.29130435 35.2857143,8.78695652 C36.4,10.4695652 38.8142857,12.7130435 39,12.9 L39,12.9 Z" id="Shape" fill="#FFFFFF"></path>
                    </g>
                </g>
            </g>
        </g>
    </g>
</svg>